<?xml version="1.0" encoding="UTF-8" standalone="no"?>
<!DOCTYPE svg PUBLIC "-//W3C//DTD SVG 1.1//EN" "http://www.w3.org/Graphics/SVG/1.1/DTD/svg11.dtd">
<svg width="100%" height="100%" viewBox="0 0 640 192" version="1.1" xmlns="http://www.w3.org/2000/svg" xmlns:xlink="http://www.w3.org/1999/xlink" xml:space="preserve" xmlns:serif="http://www.serif.com/" style="fill-rule:evenodd;clip-rule:evenodd;stroke-linejoin:round;stroke-miterlimit:2;">
    <g transform="matrix(1,0,0,1,5,0)">
        <g id="Untitled" transform="matrix(1,0,0,1,100,96)">
            <g transform="matrix(1,0,0,1,-100,-75)">
                <g transform="matrix(0.36892,0.0988517,-0.0988517,0.36892,-463.223,-182.341)">
                    <g transform="matrix(1,0,0,1,1429.48,2.74227)">
                        <path d="M193.617,324.02C193.351,325.406 192.536,326.625 191.358,327.401C190.179,328.178 188.737,328.444 187.359,328.141C160.816,322.437 133.111,320.986 105.172,324.264C104.162,324.386 103.148,324.078 102.376,323.415C101.604,322.753 101.146,321.797 101.113,320.781C101.111,320.778 101.111,320.776 101.111,320.776C101.111,179.486 215.821,64.776 357.111,64.776C360.847,64.776 364.564,64.857 368.256,65.026C370.075,65.112 371.719,66.136 372.597,67.732C392.408,104.005 403.65,145.632 403.65,189.864C403.65,269.173 367.507,340.107 310.802,387.007C308.811,388.636 305.931,388.576 304.01,386.864C280.897,366.425 254.245,350.306 225.47,339.386C223.394,338.607 222.035,336.603 222.078,334.386C222.288,324.915 223.088,315.33 224.443,305.696C231.151,258.027 250.61,215.268 278.939,180.417C279.161,180.159 279.148,179.773 278.908,179.531C278.668,179.289 278.283,179.272 278.022,179.492C235.739,215.685 205.036,265.792 193.617,324.02Z" style="fill:rgb(0,203,147);"/>
                    </g>
                    <g transform="matrix(1,0,0,1,1187.88,122.408)">
                        <path d="M304.594,196.982C306.087,196.741 307.612,197.159 308.773,198.128C309.934,199.097 310.618,200.522 310.648,202.034C311.651,243.202 322.397,281.977 340.695,316.096C341.154,316.942 341.112,317.972 340.585,318.777C340.057,319.583 339.13,320.033 338.171,319.95C336.117,319.775 334.013,319.593 333.195,319.523C332.956,319.502 332.719,319.465 332.485,319.412C253.971,301.512 186.231,247.011 153.638,169.949C152.912,168.221 153.167,166.237 154.305,164.748C198.17,107.741 265.443,69.79 341.634,65.286C342.592,65.235 343.5,65.712 344.002,66.529C344.503,67.347 344.517,68.373 344.038,69.203C326.337,100.19 314.95,135.242 311.661,172.564C311.488,174.593 310.154,176.338 308.241,177.036C274.772,189.033 237.379,189.644 202.466,177.234C202.361,177.196 202.245,177.244 202.197,177.344C202.149,177.444 202.184,177.564 202.278,177.622C202.28,177.624 202.281,177.624 202.281,177.624C234.451,196.198 270.461,202.173 304.594,196.982Z" style="fill:rgb(0,203,147);"/>
                    </g>
                </g>
            </g>
        </g>
        <g transform="matrix(1,0,0,1,-189.095,-5.34799)">
            <g transform="matrix(118,0,0,118,420.263,131.202)">
                <path d="M0.325,0.23C0.466,0.23 0.587,0.134 0.587,-0.04L0.587,-0.53L0.472,-0.53L0.472,-0.46C0.434,-0.507 0.374,-0.538 0.302,-0.539C0.153,-0.541 0.038,-0.426 0.038,-0.273C0.038,-0.124 0.149,-0.007 0.302,-0.007C0.376,-0.007 0.435,-0.037 0.472,-0.081L0.472,-0.038C0.471,0.076 0.405,0.123 0.324,0.123C0.269,0.123 0.202,0.1 0.177,0.03L0.062,0.03C0.095,0.168 0.211,0.23 0.325,0.23ZM0.312,-0.11C0.221,-0.11 0.145,-0.18 0.145,-0.273C0.145,-0.365 0.219,-0.436 0.312,-0.436C0.405,-0.436 0.48,-0.364 0.48,-0.273C0.48,-0.182 0.404,-0.11 0.312,-0.11Z" style="fill:rgb(0,203,147);fill-rule:nonzero;"/>
            </g>
            <g transform="matrix(118,0,0,118,495.783,131.202)">
                <path d="M0.308,0.008C0.458,0.008 0.58,-0.115 0.58,-0.266C0.58,-0.415 0.459,-0.539 0.308,-0.539C0.157,-0.539 0.035,-0.416 0.035,-0.266C0.035,-0.116 0.157,0.008 0.308,0.008ZM0.308,-0.097C0.216,-0.097 0.143,-0.174 0.143,-0.266C0.143,-0.358 0.215,-0.434 0.308,-0.434C0.4,-0.434 0.472,-0.358 0.472,-0.266C0.472,-0.175 0.4,-0.097 0.308,-0.097Z" style="fill:rgb(0,203,147);fill-rule:nonzero;"/>
            </g>
            <g transform="matrix(118,0,0,118,567.173,131.202)">
                <path d="M0.056,0L0.171,0L0.171,-0.284C0.171,-0.363 0.209,-0.434 0.296,-0.434C0.363,-0.434 0.402,-0.382 0.402,-0.297L0.402,0L0.517,0L0.517,-0.3C0.522,-0.372 0.561,-0.434 0.641,-0.434C0.71,-0.434 0.748,-0.382 0.748,-0.297L0.748,0L0.863,0L0.863,-0.325C0.863,-0.464 0.765,-0.539 0.664,-0.539C0.594,-0.539 0.524,-0.502 0.485,-0.439C0.449,-0.505 0.386,-0.539 0.318,-0.539C0.251,-0.539 0.203,-0.505 0.171,-0.462L0.171,-0.53L0.056,-0.53L0.056,0Z" style="fill:rgb(0,203,147);fill-rule:nonzero;"/>
            </g>
            <g transform="matrix(118,0,0,118,674.435,131.202)">
                <path d="M0.119,-0.592C0.16,-0.592 0.193,-0.622 0.193,-0.664C0.193,-0.705 0.16,-0.736 0.119,-0.736C0.078,-0.736 0.044,-0.705 0.044,-0.664C0.044,-0.622 0.078,-0.592 0.119,-0.592ZM0.06,0L0.175,0L0.175,-0.53L0.06,-0.53L0.06,0Z" style="fill:rgb(0,203,147);fill-rule:nonzero;"/>
            </g>
            <g transform="matrix(118,0,0,118,702.165,131.202)">
                <path d="M0.053,0L0.168,0L0.168,-0.273C0.168,-0.363 0.225,-0.432 0.31,-0.432C0.38,-0.432 0.44,-0.381 0.44,-0.294L0.44,0L0.555,0L0.555,-0.325C0.555,-0.459 0.449,-0.539 0.333,-0.539C0.256,-0.539 0.201,-0.503 0.168,-0.46L0.168,-0.53L0.053,-0.53L0.053,0Z" style="fill:rgb(0,203,147);fill-rule:nonzero;"/>
            </g>
            <g transform="matrix(118,0,0,118,770.841,131.202)">
                <path d="M0.409,-0.004L0.409,-0.115C0.295,-0.076 0.242,-0.111 0.242,-0.172L0.242,-0.43L0.405,-0.43L0.405,-0.53L0.242,-0.53L0.242,-0.69L0.129,-0.657L0.129,-0.53L0.029,-0.53L0.029,-0.43L0.129,-0.43L0.129,-0.171C0.129,-0.017 0.247,0.041 0.409,-0.004Z" style="fill:rgb(0,203,147);fill-rule:nonzero;"/>
            </g>
        </g>
    </g>
</svg>
